<svg viewBox="0 0 100 32" version="1.1" xmlns="http://www.w3.org/2000/svg" preserveAspectRatio="none" class="SparkLine__Svg-sc-9wg5ja-0 cdfFYq"><path d="M 0,17.13502175826033 C 2.6803551325865762e-17,17.5727569704787 -0.19999999999999998,19.206369564955335 0,19.323697819352184 C 0.19999999999999998,19.441026073749033 0.6,17.769601118651806 1,17.721663030244567 C 1.4,17.673724941837328 1.8,18.711423990742208 2,19.084007377315984 C 2.2,19.45659076388976 1.8,19.66260592837256 2,19.58457996311344 C 2.2,19.506553997854322 2.6000000000000005,19.538146268548743 3,18.693877551020385 C 3.4,17.849608833492027 3.8000000000000003,15.83690345600733 4,15.363236375471647 C 4.2,14.889569294935965 3.8,15.765618332389128 4,16.325542148341974 C 4.2,16.88546596429482 4.6,17.675648830116845 5,18.162855455235874 C 5.4,18.650062080354903 5.8,18.487688802632718 6,18.761575273937126 C 6.2,19.035461745241534 5.8,19.99182226936848 6,19.53228781175791 C 6.2,19.07275335414734 6.6,16.88872066251194 7,16.463902985884285 C 7.4,16.03908530925663 7.8,17.212223199971064 8,17.408199428619646 C 8.2,17.60417565726823 7.8,17.410672999264747 8,17.4437841291272 C 8.2,17.47689525898965 8.6,17.167814650963727 9,17.573755077931906 C 9.4,17.979695504900086 9.6,18.506262280458557 10,19.473486263968095 C 10.4,20.440710247477632 10.8,21.71895319261786 11,22.409874995479587 C 11.2,23.100796798341314 10.8,23.121945104090106 11,22.92809527827672 C 11.2,22.734245452463338 11.6,22.198637848523884 12,21.440625866412674 C 12.4,20.682613884301464 12.8,20.187321142278563 13,19.138035367720665 C 13.2,18.088749593162767 12.8,17.153074484371416 13,16.19419699362319 C 13.2,15.235319502874965 13.6,14.512573984112256 14,14.343647913979535 C 14.4,14.174721843846813 14.8,15.472319394385018 15,15.349566642959584 C 15.2,15.22681389153415 14.8,13.971223645985292 15,13.729884156852362 C 15.2,13.488544667719433 15.6,13.931921356847477 16,14.142869197294935 C 16.4,14.353817037742393 16.8,14.546871270658281 17,14.78462335908965 C 17.2,15.02237544752102 16.8,15.566604385404496 17,15.331629639451778 C 17.2,15.09665489349906 17.6,13.760941210506674 18,13.60974962932606 C 18.4,13.458558048145447 18.6,14.524927372012014 19,14.57567173354871 C 19.4,14.626416095085405 19.8,14.00592596164279 20,13.863471437009538 C 20.2,13.721016912376287 19.8,13.872613522668344 20,13.863399110382453 C 20.2,13.854184698096562 20.6,13.793849825813325 21,13.817399375580086 C 21.4,13.840948925346847 21.8,13.942567836348983 22,13.98114685921626 C 22.2,14.019725882083536 21.8,14.225712115915488 22,14.010294489916472 C 22.2,13.794876863917455 22.6,12.891358173511586 23,12.904058729221173 C 23.4,12.91675928493076 23.8,13.172737683378154 24,14.07379726846441 C 24.2,14.974856853550667 23.8,17.008160854418612 24,17.40935665465246 C 24.2,17.810552454886306 24.6,16.09716359077594 25,16.079776269633648 C 25.4,16.062388948491357 25.8,16.67864074158899 26,17.322420048940998 C 26.2,17.966199356293007 25.8,18.67378521402656 26,19.29867280639369 C 26.2,19.92356039876082 26.6,20.076618006919237 27,20.44685801077665 C 27.4,20.817098014634066 27.8,20.86115939583157 28,21.149872825680767 C 28.2,21.438586255529962 27.8,21.28474751979938 28,21.890425160022627 C 28.2,22.496102800245872 28.6,22.956346058801515 29,24.17826102679699 C 29.4,25.400175994792463 29.6,28.573998577576333 30,28 C 30.4,27.426001422423667 30.8,22.892163409959366 31,21.308268138915324 C 31.2,19.72437286787128 30.8,20.17583567390331 31,20.08052364477979 C 31.2,19.985211615656272 31.6,20.32132791687258 32,20.831707993297723 C 32.4,21.342088069722866 32.8,21.92765890762684 33,22.632424026905504 C 33.2,23.33718914618417 32.8,24.399464782959853 33,24.35553358969105 C 33.2,24.311602396422245 33.6,23.296729631013644 34,22.412768060561476 C 34.4,21.528806490109307 34.8,20.846390298588396 35,19.93572573743021 C 35.2,19.025061176272025 34.8,18.329915498390733 35,17.859445254770545 C 35.2,17.388975011150357 35.6,17.45715008980554 36,17.58337451932927 C 36.4,17.709598948852996 36.8,18.800458068637965 37,18.49056740238919 C 37.2,18.180676736140413 36.8,16.40883349205009 37,16.033921188085387 C 37.2,15.659008884120684 37.6,16.46792434634812 38,16.616005882565673 C 38.4,16.764087418783227 38.6,16.769902479597825 39,16.774328869173146 C 39.4,16.77875525874847 39.8,16.85694034258712 40,16.638137830442282 C 40.2,16.419335318297446 39.8,15.620053762792786 40,15.680316308448964 C 40.2,15.740578854105141 40.6,16.737963041093558 41,16.939450558723173 C 41.4,17.14093807635279 41.8,16.88014272454405 42,16.687753896597044 C 42.2,16.495365068650038 41.8,16.177532938751394 42,15.977506418988138 C 42.2,15.777479899224883 42.6,15.62096507829356 43,15.687621297780769 C 43.4,15.754277517267978 43.8,15.720443121135062 44,16.310787516424185 C 44.2,16.901131911713307 43.8,18.32744192774569 44,18.639343274226384 C 44.2,18.95124462070708 44.6,18.0478850488807 45,17.870294248827662 C 45.4,17.692703448774623 45.8,18.459394626131584 46,17.751389273961188 C 46.2,17.04338392179079 45.8,15.285731161927233 46,14.330267487975675 C 46.2,13.374803814024117 46.6,12.93706860180576 47,12.974070904203396 C 47.4,13.011073206601031 47.8,14.24107429150043 48,14.515278999963847 C 48.2,14.789483708427264 47.8,14.302754439046732 48,14.345094446520477 C 48.2,14.387434453994222 48.6,14.548751762961517 49,14.726979037332576 C 49.4,14.905206311703635 49.6,14.93776775920053 50,15.23623081837577 C 50.4,15.53469387755101 50.8,16.239574719432955 51,16.219294333208776 C 51.2,16.199013946984596 50.8,15.351938956326794 51,15.134828887254868 C 51.2,14.91771881818294 51.6,15.003483732536157 52,15.13374398784914 C 52.4,15.264004243162123 52.8,15.659486239859183 53,15.786130163819784 C 53.2,15.912774087780386 52.8,15.78770688428944 53,15.76696360765215 C 53.2,15.74622033101486 53.6,15.660440951336225 54,15.682413780633329 C 54.4,15.704386609930433 54.8,16.537459165591805 55,15.876827754137672 C 55.2,15.21619634268354 54.8,13.965423050495998 55,12.37925672336267 C 55.2,10.79309039622934 55.6,8.626951312125563 56,7.945996118471028 C 56.4,7.265040924816493 56.8,8.90867798980196 57,8.974480755089992 C 57.2,9.040283520378024 56.8,8.2259580264474 57,8.275009944911186 C 57.2,8.324061863374974 57.6,8.981322854008718 58,9.219740347408925 C 58.4,9.45815784080913 58.6,9.358679797967657 59,9.46709741191222 C 59.4,9.575515025856784 59.8,9.808725002109506 60,9.76182841713174 C 60.2,9.714931832153974 59.8,9.108299480453717 60,9.23261448702339 C 60.2,9.356929493593064 60.6,10.081946068445104 61,10.38340344998011 C 61.4,10.684860831515115 61.8,11.305350964957718 62,10.739901394698421 C 62.2,10.174451824439124 61.8,8.287392263461765 62,7.556155598683629 C 62.2,6.8249189339054945 62.6,6.53348602287929 63,7.0837180708077465 C 63.4,7.633950118736203 63.8,9.724493412249737 64,10.30731583832591 C 64.2,10.890138264402081 63.8,9.913627541979626 64,9.997830201188602 C 64.2,10.082032860397579 64.6,10.515500801620103 65,10.728329134370796 C 65.4,10.941157467121489 65.8,10.93960967730268 66,11.061971864942063 C 66.2,11.184334052581445 65.8,11.440963390672257 66,11.340140072567705 C 66.2,11.239316754463152 66.6,11.00992562411854 67,10.557855274419298 C 67.4,10.105784924720055 67.8,9.486712393167535 68,9.079788324071494 C 68.2,8.672864254975453 67.8,8.565864242921027 68,8.523234928939093 C 68.2,8.48060561495716 68.6,9.098144822016247 69,8.866641754161822 C 69.4,8.635138686307398 69.6,7.5614643731090085 70,7.365719589666973 C 70.4,7.169974806224938 70.8,7.778126017093168 71,7.8879178369516465 C 71.2,7.997709656810125 70.8,8.050305579999293 71,7.914678688959364 C 71.2,7.7790517979194345 71.6,7.272172330243391 72,7.209783381751999 C 72.4,7.147394433260606 72.8,7.745955133382355 73,7.6027339465024015 C 73.2,7.459512759622448 72.8,6.590291355762606 73,6.493677447352229 C 73.2,6.397063538941852 73.6,7.618399893920964 74,7.119664404450518 C 74.4,6.620928914980072 74.8,4.380727364779342 75,4 C 75.2,3.6192726352206575 74.8,4.9072652096869644 75,5.216027580553806 C 75.2,5.524789951420648 75.6,5.202054076208197 76,5.543811854334209 C 76.4,5.885569632460222 76.8,6.702281905083371 77,6.9248164711838704 C 77.2,7.14735103728437 76.8,6.572383282905591 77,6.6564846848367045 C 77.2,6.740586086767818 77.6,7.029574357799785 78,7.345323480839439 C 78.4,7.661072603879093 78.6,7.9727280398278655 79,8.235230300034974 C 79.4,8.497732560242083 79.8,8.429311571054921 80,8.657834781874982 C 80.2,8.886357992695043 79.8,9.392803500608764 80,9.377846354135277 C 80.2,9.362889207661791 80.6,8.672184384681195 81,8.583049049507547 C 81.4,8.4939137143339 81.8,8.737799100738917 82,8.932169678267037 C 82.2,9.126540255795158 81.8,9.27499789047336 82,9.554901937148149 C 82.2,9.834805983822937 82.6,9.68997914582255 83,10.331689911640984 C 83.4,10.973400677459418 83.8,12.354043661173847 84,12.76345576624032 C 84.2,13.172867871306792 83.8,12.55663054353458 84,12.37875043697335 C 84.2,12.20087033041212 84.6,11.813069421507521 85,11.874055233434177 C 85.4,11.935041045360833 85.8,12.544696650071678 86,12.683679496606635 C 86.2,12.822662343141591 85.8,12.858724399387645 86,12.568969466108962 C 86.2,12.279214532830279 86.6,11.792861361910367 87,11.234904830213218 C 87.4,10.676948298516068 87.8,9.982757332111804 88,9.779186807623212 C 88.2,9.57561628313462 87.8,10.003688657979392 88,10.217052207770253 C 88.2,10.430415757561114 88.6,10.734766204178083 89,10.846004556577519 C 89.4,10.957242908976955 89.6,10.12143640681314 90,10.773243969767435 C 90.4,11.42505153272173 90.8,13.184309943705749 91,14.105042371348988 C 91.2,15.025774798992227 90.8,15.391342502742354 91,15.376906107983634 C 91.2,15.362469713224915 91.6,14.158419422110276 92,14.032860397555385 C 92.4,13.907301373000495 92.8,14.26142700435164 93,14.749110985209185 C 93.2,15.23679496606673 92.8,15.87225671130825 93,16.47128030184311 C 93.2,17.070303892377968 93.6,17.52257675663295 94,17.74422893788348 C 94.4,17.96588111913401 94.8,17.801569487806933 95,17.579541208095755 C 95.2,17.357512928384576 94.8,16.753339682003915 95,16.63408753932758 C 95.2,16.514835396651247 95.6,16.545762262376844 96,16.983280494714084 C 96.4,17.420798727051324 96.8,18.68239208264522 97,18.821678701013784 C 97.2,18.96096531938235 96.8,18.050199500946285 97,17.679713586556904 C 97.2,17.309227672167523 97.6,16.583169593886005 98,16.969249129066878 C 98.4,17.35532866424775 98.8,19.081938835782385 99,19.61011126246126" stroke-width="1.7" class="SparkLine__Path-sc-9wg5ja-1 csnuAl"></path></svg>