<svg xmlns="http://www.w3.org/2000/svg" viewBox="0 0 41 40" fill="none"><rect x="0.5" width="40" height="40" rx="20" fill="white"></rect><path d="M16.7333 26.9667C17.5667 30.3 18.9333 32.5 20.5333 32.5C22.1333 32.5 23.5 30.3 24.3333 26.9667C23.1333 26.5667 21.8667 26.0334 20.5333 25.3334C19.2333 26.0334 17.9333 26.5667 16.7333 26.9667ZM24.3333 13.2C23.5333 9.86669 22.1333 7.66669 20.5333 7.66669C18.9333 7.66669 17.5667 9.86669 16.7333 13.2C17.9333 13.6 19.2 14.1334 20.5333 14.8334C21.8667 14.1334 23.1333 13.6 24.3333 13.2Z" fill="#C7EDFE"></path><path d="M16.7333 13.2C13.4667 12.1 10.9 12.1333 10.0333 13.4667C9.13333 14.9 10.4333 17.4667 13.1333 20.1C13.9667 19.2667 14.9667 18.4333 16.0333 17.6333C16.2 16 16.4333 14.5 16.7333 13.2V13.2ZM27.9333 20.0667C27.1 20.9 26.1 21.7333 25.0333 22.5333C24.9 24.1333 24.6667 25.6333 24.3667 26.9667C27.6333 28.0667 30.2 28.0333 31.0667 26.7C31.9333 25.3 30.6333 22.7333 27.9333 20.0667V20.0667Z" fill="#C7EDFE"></path><path d="M18.1 16.2333C18.9333 15.7 19.7333 15.2333 20.5333 14.8333C19.2 14.1333 17.9333 13.6 16.7333 13.2C16.4 14.5333 16.1667 16.0333 16.0667 17.6333C16.7 17.1333 17.4 16.6667 18.1 16.2333ZM22.9667 23.9333C22.1333 24.4667 21.3333 24.9333 20.5333 25.3333C21.8667 26.0333 23.1333 26.5667 24.3333 26.9667C24.6667 25.6333 24.9 24.1333 25 22.5333C24.3667 23.0333 23.7 23.5 22.9667 23.9333V23.9333Z" fill="#56B4FC"></path><path d="M27.9333 20.0667C30.6333 17.4333 31.9333 14.8667 31.0333 13.4333C30.2 12.1 27.6 12.1 24.3333 13.1667C24.6667 14.5 24.9 16 25 17.6C26.1 18.4333 27.1 19.2667 27.9333 20.0667V20.0667ZM13.1667 20.0667C10.4667 22.7 9.16666 25.2667 10.0667 26.7C10.9 28.0333 13.5 28.0333 16.7667 26.9667C16.4333 25.6333 16.2 24.1333 16.1 22.5333C14.9667 21.7333 14 20.9 13.1667 20.0667V20.0667Z" fill="#C7EDFE"></path><path d="M22.9667 16.2333C23.6667 16.7 24.3667 17.1667 25 17.6333C24.8667 16.0333 24.6333 14.5333 24.3333 13.2C23.1333 13.6 21.8667 14.1333 20.5333 14.8333C21.3333 15.2333 22.1667 15.7 22.9667 16.2333V16.2333ZM18.1 23.9333C17.4 23.4667 16.7 23 16.0667 22.5333C16.2 24.1333 16.4333 25.6333 16.7333 26.9667C17.9333 26.5667 19.2 26.0333 20.5333 25.3333C19.7333 24.9333 18.9333 24.4667 18.1 23.9333V23.9333ZM25.1 20.0667C25.1 20.9 25.0667 21.7333 25 22.5333C26.1 21.7333 27.0667 20.9 27.9 20.0667C27.0667 19.2333 26.0667 18.4 25 17.6C25.0667 18.4 25.1 19.2333 25.1 20.0667V20.0667Z" fill="#56B4FC"></path><path d="M15.9667 20.0666C15.9667 19.2333 16 18.4 16.0667 17.6C14.9667 18.4 14 19.2333 13.1667 20.0666C14 20.9 15 21.7333 16.0667 22.5333C16 21.7666 15.9667 20.9333 15.9667 20.0666V20.0666Z" fill="#56B4FC"></path><path d="M25.0333 17.6333C24.4 17.1666 23.7 16.7 23 16.2333C22.1667 15.7 21.3667 15.2333 20.5667 14.8333C19.7667 15.2666 18.9333 15.7333 18.1333 16.2333C17.4333 16.7 16.7333 17.1666 16.1 17.6333C16.0333 18.4333 16 19.2666 16 20.1C16 20.9333 16.0333 21.7666 16.1 22.5666C16.7333 23.0333 17.4333 23.5 18.1333 23.9666C18.9667 24.5 19.7667 24.9666 20.5667 25.3666C21.3667 24.9333 22.2 24.4666 23 23.9666C23.7 23.5 24.4 23.0333 25.0333 22.5666C25.1 21.7666 25.1333 20.9333 25.1333 20.1C25.1333 19.2666 25.0667 18.4 25.0333 17.6333V17.6333Z" fill="#1652F0"></path><path d="M20.5333 21.6333C20.9842 21.6333 21.4166 21.4542 21.7354 21.1354C22.0542 20.8166 22.2333 20.3842 22.2333 19.9333C22.2333 19.4825 22.0542 19.0501 21.7354 18.7313C21.4166 18.4124 20.9842 18.2333 20.5333 18.2333C20.0824 18.2333 19.65 18.4124 19.3312 18.7313C19.0124 19.0501 18.8333 19.4825 18.8333 19.9333C18.8333 20.3842 19.0124 20.8166 19.3312 21.1354C19.65 21.4542 20.0824 21.6333 20.5333 21.6333V21.6333Z" fill="white"></path></svg>