<svg viewBox="0 0 100 32" version="1.1" xmlns="http://www.w3.org/2000/svg" preserveAspectRatio="none" class="SparkLine__Svg-sc-9wg5ja-0 cdfFYq"><path d="M 0,13.66278240190254 C 1.3230429153349965e-17,13.446713096653687 4.3435748541187404e-18,12.653371836249413 0,12.582435875658279 C 4.3435748541187404e-18,12.511499915067144 -0.19999999999999987,12.786437914047948 0,13.30810259894687 C 0.2,13.829767283845793 0.7999999999999999,15.349264481059977 1,15.190759300152889 C 1.2,15.0322541192458 1,13.10083913708172 1,12.515576694411433 C 1,11.930314251741144 0.7999999999999998,11.774092067266869 1,12.264447086801447 C 1.2,12.754802106336024 1.8000000000000003,14.320774588075476 2,14.967351792084319 C 2.2,15.613928996093161 2,15.028992695770413 2,15.497333106845657 C 2,15.965673517920902 1.8,17.186750467131006 2,17.309053847460543 C 2.2,17.43135722779008 2.8000000000000003,16.399279768982563 3,16.108850008493345 C 3.2,15.818420248004129 3,16.00089689145578 3,15.85690504501446 C 3,15.712913198573139 2.8000000000000003,15.951160183455073 3,15.388890776286734 C 3.2,14.826621369118396 3.8000000000000003,13.85569560047563 4,13.045558009172767 C 4.2,12.235420417869904 4,11.40816035332091 4,11.338202819772414 C 4,11.268245286223918 3.8,12.493399014778339 4,12.695770341430283 C 4.2,12.898141668082227 4.8,12.28613555291322 5,12.350059453032136 C 5.2,12.413983353151052 5,12.57835909631397 5,13.015389842024861 C 5,13.452420587735752 4.8,14.551031085442547 5,14.535213181586585 C 5.2,14.519395277730622 5.8,12.87123492440974 6,12.936300322745051 C 6.2,13.001365721080363 6,14.66094105656533 6,14.860540173263143 C 6,15.060139289960956 5.8,13.73844742653308 6,13.934295906234114 C 6.2,14.130144385935148 6.8,15.638226600985238 7,15.839782571768314 C 7.2,16.04133854255139 7,15.614907423135739 7,14.942075760149496 C 7,14.269244097163254 6.8,12.70001019194836 7,12.475624256837103 C 7.2,12.251238321725845 7.8,13.440516392050316 8,13.82014608459321 C 8.2,14.199775777136104 7.8,14.18134873449976 8,14.373772719551575 C 8.2,14.566196704603389 8.8,14.784549006285097 9,14.782266009852284 C 9.2,14.779983013419471 9,14.49754374044511 9,14.36235773738751 C 9,14.227171734329911 8.8,14.162595549515888 9,14.10633599456429 C 9.2,14.050076439612692 9.8,14.011428571428558 10,14.081059962629515 C 10.2,14.150691353830473 10,13.975715984372366 10,14.45449295056908 C 10,14.933269916765793 9.8,15.766237472396847 10,16.47494479361308 C 10.2,17.183652114829314 10.8,17.353572277900458 11,17.998029556650245 C 11.2,18.64248683540003 11,19.682391710548696 11,19.69723118736202 C 11,19.712070664175346 10.8,18.122126719891316 11,18.072226940716867 C 11.2,18.022327161542417 11.8,18.90959741803981 12,19.447732291489782 C 12.2,19.985867164939755 12,20.65299133684392 12,20.76290130796673 C 12,20.872811279089536 11.8,20.65527433327673 12,19.99728214710381 C 12.2,19.33928996093089 12.8,18.18001698658065 13,17.47294037710214 C 13.2,16.76586376762363 13,16.592029896381906 13,16.46189909971127 C 13,16.331768303040636 12.8,17.27301511805677 13,16.82228639374897 C 13.2,16.371557669441174 13.8,14.967841005605607 14,14.20825547817228 C 14.2,13.448669950738953 14,13.415892644810633 14,13.024358756582334 C 14,12.632824868354035 13.8,12.463230847630422 14,12.25058603703079 C 14.2,12.037941226431156 14.8,11.856116867674539 15,11.961134703584168 C 15.2,12.066152539493798 15,12.71648038049944 15,12.775675216578941 C 15,12.834870052658442 14.8,12.6108102598947 15,12.257108883981667 C 15.2,11.903407508068634 15.8,11.528343808391385 16,11.007168337013772 C 16.2,10.485992865636158 15.8,9.947531849838628 16,9.6512315270936 C 16.2,9.354931204348572 16.8,9.417061321556004 17,9.525666723288632 C 17.2,9.63427212502126 17,10.036079497197207 17,10.194258535756745 C 17,10.352437574316284 16.8,10.313626634958403 17,10.316561916086325 C 17.2,10.319497197214247 17.8,10.086142347545495 18,10.208934941396352 C 18.2,10.331727535247209 18,11.095389842024835 18,10.930524885340606 C 18,10.765659928656378 17.8,9.752498726006461 18,9.38461015797521 C 18.2,9.016721589943959 18.8,9.129403771020938 19,9.091082045184354 C 19.2,9.05276031934777 19,8.965517241379356 19,9.193001528792294 C 19,9.420485816205233 18.8,9.992050280278603 19,10.228503482249042 C 19.2,10.464956684219482 19.8,10.340207236283362 20,10.375267538644495 C 20.2,10.410327841005628 20,10.27514183794803 20,10.40380499405471 C 20,10.532468150161389 19.8,11.11381688466116 20,11.018583319177889 C 20.2,10.923349753694618 20.8,10.218882282996441 21,9.927637166638357 C 21.2,9.636392050280273 21,9.609974520129093 21,9.562357737387469 C 21,9.514740954645845 20.8,9.6939561746221 21,9.689553252930233 C 21.2,9.685150331238367 21.8,9.560400883302185 22,9.540343128928136 C 22.2,9.520285374554087 22,9.561868523866162 22,9.589264481059988 C 22,9.616660438253815 21.8,9.563010022082599 22,9.677322914897271 C 22.2,9.791635807711943 22.8,10.283132325462885 23,10.160828945133348 C 23.2,10.03852556480381 23,9.353952777305976 23,9.065806013249583 C 23,8.77765924919319 22.8,8.78352981144897 23,8.720095124851383 C 23.2,8.656660438253796 23.8,8.722215050110458 24,8.748632580261647 C 24.2,8.775050110412836 23.8,8.581647698318395 24,8.852182775607332 C 24.2,9.122717852896269 24.8,9.259208425344013 25,10.10130796670633 C 25.2,10.943407508068645 25,12.322500424664549 25,13.062680482418916 C 25,13.802860540173283 24.8,14.005068795651427 25,13.802208255478165 C 25.2,13.599347715304903 25.8,12.441216239171077 26,12.048377781552603 C 26.2,11.655539323934129 26,11.674129437744211 26,11.838015967385793 C 26,12.001902497027375 25.8,12.301138100900305 26,12.86781042976051 C 26.2,13.434482758620716 26.8,14.23124851367425 27,14.67137761168682 C 27.2,15.11150670969939 27,14.838199422456281 27,15.06845591982336 C 27,15.29871241719044 26.8,15.281589943944333 27,15.822660098522215 C 27.2,16.363730253100098 27.8,17.612203159504016 28,17.773806692712775 C 28.2,17.935410225921533 28,16.4053134024121 28,16.630677764566006 C 28,16.85604212671991 27.8,17.932474944793654 28,18.9006285034823 C 28.2,19.868782062170943 28.8,21.539772379819993 29,21.471445558009222 C 29.2,21.40311873619845 29,18.322867334805537 29,18.55899439442844 C 29,18.79512145405134 28.8,22.25565483268225 29,22.65208085612373 C 29.2,23.048506879565213 29.8,20.5288941736029 30,20.541124511635854 C 30.2,20.553354849668807 30,22.269678953626702 30,22.71323254628849 C 30,23.15678613895028 29.8,23.369757091897423 30,22.7588924749448 C 30.2,22.14802785799218 30.8,20.84704603363342 31,19.658909461525386 C 31.2,18.470772889417354 31,18.12587735688806 31,16.818209614404633 C 31,15.510541871921204 30.8,14.488900968235136 31,13.120570749108241 C 31.2,11.752240529981346 31.8,10.375104467470685 32,9.976558518770158 C 32.2,9.578012570069632 32,10.847195515542749 32,11.127841005605605 C 32,11.40848649566846 31.8,10.896606081195879 32,11.379785969084438 C 32.2,11.862965856972997 32.8,13.230480720231002 33,13.5437404450484 C 33.2,13.857000169865797 32.8,13.00886699507391 33,12.946084593171422 C 33.2,12.883302191268934 33.8,12.774370647188753 34,13.229828435535957 C 34.2,13.68528622388316 34,15.033721759809765 34,15.223373534907438 C 34,15.41302531000511 33.8,14.58641753015121 34,14.178087311024322 C 34.2,13.769757091897436 34.8,13.739588924749487 35,13.181722439273004 C 35.2,12.623855953796522 35,12.15730932563274 35,11.388754883641909 C 35,10.620200441651077 34.8,10.067226091387814 35,9.33895022931885 C 35.2,8.610674367249889 35.8,7.860057754374041 36,7.747375573297094 C 36.2,7.634693392220147 36,8.573820281977259 36,8.775539323934115 C 36,8.977258365890972 35.8,8.818100900288785 36,8.755970783081374 C 36.2,8.693840665873962 36.8,8.17201290980125 37,8.46488873789706 C 37.2,8.757764565992868 37,10.122996432818104 37,10.220349923560418 C 37,10.317703414302732 36.8,9.458318328520475 37,8.951656191608627 C 37.2,8.44499405469678 37.8,8.250124002038373 38,7.6870392390011775 C 38.2,7.1239544759639815 38,6.184338372685591 38,6.136232376422648 C 38,6.088126380159705 37.8,7.089383387124208 38,7.446509257686461 C 38.2,7.803635128248715 38.8,7.877506369967739 39,7.921861729233913 C 39.2,7.966217088500088 39,7.599306947511475 39,7.668286054017335 C 39,7.737265160523195 38.8,7.894302700866318 39,8.266757261763214 C 39.2,8.63921182266011 39.8,9.491584847970135 40,9.530558858501816 C 40.2,9.569532869033498 40,8.600074740954668 40,8.46162731442162 C 40,8.323179887888571 39.8,9.031234924409706 40,8.838321725836574 C 40.2,8.645408527263442 40.8,7.562126719891268 41,7.497061321555956 C 41.2,7.431995923220644 40.8,8.180981824358755 41,8.512994734160014 C 41.2,8.845007643961273 41.8,8.969267878376074 42,9.157125870562252 C 42.2,9.34498386274843 42,9.418855104467498 42,9.452284695090906 C 42,9.485714285714314 41.8,9.468265670120607 42,9.324273823679295 C 42.2,9.180281977237984 42.8,8.768038049940568 43,8.732325462884347 C 43.2,8.696612875828126 43,9.298671649397003 43,9.145710888398188 C 43,8.992750127399374 42.8,8.226315610667585 43,7.9675216578902734 C 43.2,7.7087277051129615 43.8,7.4765143536605985 44,7.851741124511626 C 44.2,8.226967895362655 44,9.560727025649745 44,9.843655512145414 C 44,10.126583998641083 43.8,9.099887888568027 44,9.26638355698997 C 44.2,9.432879225411913 44.8,10.08108714115847 45,10.676133854255129 C 45.2,11.271180567351788 45,12.00614234754545 45,12.241617122473265 C 45,12.47709189740108 44.8,12.048051639205054 45,11.853507728894197 C 45.2,11.65896381858334 45.8,11.44843893324274 46,11.268897570918975 C 46.2,11.08935620859521 46,11.079082724647554 46,10.95580091727538 C 46,10.832519109903204 45.8,10.995753354849677 46,10.652488534058103 C 46.2,10.309223713266528 46.8,9.71026329199934 47,9.239476813317502 C 47.2,8.768690334635664 47,8.606923730253127 47,8.298556140648916 C 47,7.990188551044705 46.8,7.533589264481096 47,7.6976388652964465 C 47.2,7.861688466111797 47.8,8.807664345167327 48,9.118804144725669 C 48.2,9.42994394428401 48,9.132502123322578 48,9.25333786308816 C 48,9.374173602853741 47.8,9.788374384236441 48,9.72298284355358 C 48.2,9.65759130287072 48.8,9.119293358246978 49,8.926380159673855 C 49.2,8.733466961100731 48.8,8.667423135722784 49,8.758416850687967 C 49.2,8.84941056565315 49.8,9.443152709359632 50,9.38134873449977 C 50.2,9.319544759639909 50,8.469617801936476 50,8.449396976388657 C 50,8.429176150840838 49.8,9.090429760489236 50,9.280244606760679 C 50.2,9.470059453032121 50.8,9.261817564124334 51,9.398471207745867 C 51.2,9.535124851367401 51,9.732604042806171 51,9.96351282486835 C 51,10.194421606930527 50.8,10.65998980805166 51,10.553015118056756 C 51.2,10.44604042806185 51.8,9.639653473755725 52,9.428639374893827 C 52.2,9.217625276031928 52,9.131523696279961 52,9.497944623747266 C 52,9.86436555121457 51.8,11.166488873789717 52,11.26074401223035 C 52.2,11.354999150670984 52.8,10.167514863258058 53,9.969220315950432 C 53.2,9.770925768642806 53,10.224589774078495 53,10.269271275692219 C 53,10.313952777305943 52.8,10.034611856633283 53,10.192627824019052 C 53.2,10.35064379140482 53.8,10.918620689655212 54,11.059351112621064 C 54.2,11.200081535586916 54,11.107457108883986 54,10.89627993884831 C 54,10.685102768812632 53.8,9.906764056395453 54,10.003465262442678 C 54.2,10.100166468489903 54.8,11.10941396296927 55,11.379785969084438 C 55.2,11.650157975199605 55,11.28716154238152 55,11.355325293018513 C 55,11.423489043655506 54.8,11.659453032104626 55,11.7206047222694 C 55.2,11.781756412434174 55.8,12.048866995073901 56,11.661083743842381 C 56.2,11.273300492610861 56,10.83072532699171 56,9.781688466111802 C 56,8.732651605231895 55.8,7.572237132665206 56,6.415899439442846 C 56.2,5.259561746220486 56.8,4.272818073721759 57,4 C 57.2,3.7271819262782406 57,4.64396806522848 57,5.051809070834048 C 57,5.459650076439617 56.8,6.009199932053663 57,6.039205028027842 C 57.2,6.069210124002021 57.8,5.5716799728214665 58,5.201834550704942 C 58.2,4.831989128588418 57.8,4.231071853235947 58,4.189977917445222 C 58.2,4.148883981654497 58.8,4.836881263801592 59,4.996364871751317 C 59.2,5.155848479701042 59,4.989842024800438 59,4.987395957193845 C 59,4.984949889587253 58.8,4.9012943774418165 59,4.984134533718354 C 59.2,5.0669746899948915 59.8,5.131713945982676 60,5.401596738576535 C 60.2,5.671479531170394 60,6.081929675556344 60,6.333548496687648 C 60,6.585167317818952 59.8,6.610117207406155 60,6.6596908442330545 C 60.2,6.709264481059954 60.8,6.826512655002537 61,6.581416680822143 C 61.2,6.336320706641748 61,5.515094275522349 61,5.434210973331085 C 61,5.353327671139821 60.8,5.892767113979979 61,6.177000169865824 C 61.2,6.461233225751669 61.8,6.4757465602174245 62,6.855376252760308 C 62.2,7.235005945303192 62,7.881093935790705 62,8.075148632580245 C 62,8.269203329369784 61.8,7.9326244267029 62,7.825649736708006 C 62.2,7.718675046713112 62.8,8.012040088330249 63,7.540275182605775 C 63.2,7.068510276881301 63,5.638049940546995 63,5.466825208085636 C 63,5.295600475624277 62.8,6.7924307796840715 63,6.684151520298981 C 63.2,6.57587226091389 63.8,4.7977441820961415 64,4.925428911160183 C 64.2,5.0531136402242245 64,6.554836079497225 64,7.322575165619188 C 64,8.090314251741152 63.8,8.707538644470873 64,8.76412434177 C 64.2,8.820710039069127 64.8,7.639096313912003 65,7.605503652114826 C 65.2,7.571910990317648 65,8.329865806013261 65,8.59616103278411 C 65,8.862456259554959 64.8,8.7437404450484 65,8.936979785969072 C 65.2,9.130219126889743 65.8,9.487508068625786 66,9.562357737387469 C 66.2,9.637207406149152 65.8,9.313511126210296 66,9.311228129777483 C 66.2,9.30894513334467 66.8,9.502510616612902 67,9.550942755223405 C 67.2,9.599374893833907 67,9.257414642432519 67,9.553388822829998 C 67,9.849363003227477 66.8,10.79109903176491 67,11.0308136572108 C 67.2,11.27052828265669 67.8,10.840346526244259 68,10.751961950059448 C 68.2,10.663577373874636 68,10.714618651265512 68,10.588890776286746 C 68,10.46316290130798 67.8,10.205510446747063 68,10.123322575165613 C 68.2,10.041134703584163 68.8,10.197846101579767 69,10.177951418379497 C 69.2,10.158056735179226 69,10.1270732121624 69,10.023849159164264 C 69,9.920625106166128 68.8,9.604430100220823 69,9.661831153388817 C 69.2,9.719232206556812 69.8,10.210891795481565 70,10.31085442500424 C 70.2,10.410817054526916 70,10.50784440292167 70,10.161644301002195 C 70,9.81544419908272 69.8,8.876643451673209 70,8.579853915406861 C 70.2,8.283064379140514 70.8,8.715039918464418 71,8.677696619670462 C 71.2,8.640353320876505 71,8.384820791574663 71,8.393137421437078 C 71,8.401454051299494 70.8,8.659269577034179 71,8.719279768982537 C 71.2,8.779289960930894 71.8,8.586865975879057 72,8.693188381178864 C 72.2,8.79951078647867 72,9.389991506709695 72,9.250891795481568 C 72,9.111792084253441 71.8,8.230881603533224 72,7.997689825038233 C 72.2,7.764498046543243 72.8,8.022150501104118 73,8.084932903006617 C 73.2,8.147715304909116 73,8.461790385595402 73,8.311601834550729 C 73,8.161413283506056 72.8,7.588055036521149 73,7.333990147783252 C 73.2,7.079925259045355 73.8,7.124117547137781 74,7.041277390861244 C 74.2,6.958437234584706 73.8,6.852440971632428 74,6.919789366400563 C 74.2,6.987137761168698 74.8,7.316867674537154 75,7.3780193647019185 C 75.2,7.439171054866683 75,7.339208425343976 75,7.225547817224382 C 75,7.111887209104788 74.8,6.949305248853392 75,6.809716324103947 C 75.2,6.670127399354502 75.8,6.546030236113471 76,6.527603193477157 C 76.2,6.509176150840843 76,6.7519891285884235 76,6.717581110922378 C 76,6.6831730932563325 75.8,6.431880414472557 76,6.3555631051469295 C 76.2,6.279245795821302 76.8,6.061708850008525 77,6.335994564294241 C 77.2,6.610280278579957 77,7.553647018855115 77,7.726991676575507 C 77,7.900336334295899 76.8,7.381770001698647 77,7.2027178528962015 C 77.2,7.023665704093756 77.8,6.700458637676241 78,6.831730932563281 C 78.2,6.963003227450321 78,7.5368506879565045 78,7.859079327331404 C 78,8.181307966706303 77.8,8.348782062170914 78,8.442874129437778 C 78.2,8.536966196704642 78.8,8.093086461695284 79,8.329539663665724 C 79.2,8.565992865636163 79,9.33585187701718 79,9.625140139289979 C 79,9.914428401562777 78.8,9.700968235094265 79,9.775980975029718 C 79.2,9.85099371496517 79.8,9.764076779344336 80,10.000203838967238 C 80.2,10.23633089859014 80,10.766964498046555 80,10.956616273144228 C 80,11.1462680482419 79.8,11.138277560727044 80,10.948462714455601 C 80.2,10.758647868184159 80.8,10.162296585697325 81,10.007542041787016 C 81.2,9.852787497876706 81,9.896979785969123 81,10.174689994904057 C 81,10.452400203838991 80.8,11.26742993035502 81,11.396093086461688 C 81.2,11.524756242568357 81.8,10.78816375063699 82,10.818005775437399 C 82.2,10.847847800237808 82,11.38581960251401 82,11.545303210463734 C 82,11.704786818413458 81.8,11.506492271105843 82,11.615423815186022 C 82.2,11.7243553592662 82.8,11.839320536775961 83,12.089960930864628 C 83.2,12.340601324953294 82.8,12.322337353490749 83,12.868625785629355 C 83.2,13.414914217767961 83.8,14.028551044674696 84,14.821403091557663 C 84.2,15.61425513844063 84,16.354924409716347 84,16.832886020044192 C 84,17.310847630372038 83.8,17.02677764565994 84,17.211211143196888 C 84.2,17.395644640733835 84.8,17.580730422965893 85,17.75505350772893 C 85.2,17.92937659249197 85,18.25176830304063 85,18.082826567012084 C 85,17.913884830983537 84.8,17.17093256327501 85,16.910344827586204 C 85.2,16.6497570918974 85.8,16.748741294377457 86,16.77988788856805 C 86.2,16.811034482758647 86,16.835495158824553 86,17.066077798539183 C 86,17.296660438253813 85.8,17.580241209444576 86,17.932801087141193 C 86.2,18.28536096483781 86.8,18.719130287073227 87,18.828877187022265 C 87.2,18.938624086971302 87,18.759735009342638 87,18.481535586886373 C 87,18.20333616443011 86.8,17.716894853066066 87,17.437880074740946 C 87.2,17.158865296415826 87.8,17.380968235094294 88,17.08646169526077 C 88.2,16.791955155427246 88,16.10118566332601 88,15.965347375573332 C 88,15.829509087820655 87.8,16.397159843723475 88,16.407270256497384 C 88.2,16.417380669271292 88.8,15.8962051978937 89,16.015899439442876 C 89.2,16.135593680992052 89,16.833538304739278 89,17.005741464243265 C 89,17.17794462374725 88.8,17.070480720231025 89,16.876915236962805 C 89.2,16.683349753694586 89.8,16.296218787158143 90,16.03791404790216 C 90.2,15.779609308646176 90,15.71275012739938 90,15.585391540682888 C 90,15.458032953966397 89.8,14.740682860540188 90,15.401121114319698 C 90.2,16.061559368099207 90.8,18.122126719891288 91,18.887582809580437 C 91.2,19.653038899269585 90.8,18.897040937659277 91,19.22840156276545 C 91.2,19.55976218787162 91.8,20.609288262272834 92,20.544385935111293 C 92.2,20.479483607949753 92,19.292814676405676 92,18.90388992695774 C 92,18.5149651775098 91.8,18.473708170545304 92,18.59976218787161 C 92.2,18.72581620519792 92.8,19.22171564464074 93,19.53416001358927 C 93.2,19.846604382537798 93,20.07262102938681 93,20.161984032614257 C 93,20.251347035841704 92.8,19.702775607270244 93,19.98097502972651 C 93.2,20.259174452182773 93.8,21.3059283166299 94,21.552981144895575 C 94.2,21.800033973161252 94,21.095729573636866 94,21.216239171054898 C 94,21.33674876847293 93.8,22.04610837438424 94,22.155529131985737 C 94.2,22.264949889587236 94.8,21.786335994564336 95,21.763342959062385 C 95.2,21.740349923560434 95,22.523743842364556 95,22.04056395447599 C 95,21.55738406658742 94.8,19.595474774927844 95,19.34744351961954 C 95.2,19.099412264311233 95.8,20.42159334126044 96,20.800407677934466 C 96.2,21.17922201460849 96,21.03947001868528 96,21.241515202989675 C 96,21.44356038729407 95.8,21.49117717003568 96,21.810633599456438 C 96.2,22.130090028877195 96.8,22.44498046543234 97,22.83879735009346 C 97.2,23.232614234754582 97,22.74747749278074 97,23.779718022762047 C 97,24.811958552743356 96.8,28.119368099201637 97,28 C 97.2,27.880631900798363 97.8,24.443580771190756 98,23.182877526753863 C 98.2,21.92217428231697 98,22.055403431289285 98,21.696483777815537 C 98,21.33756412434179 97.8,21.239884491251946 98,21.388279259385126 C 98.2,21.536674027518306 98.8,21.750460336334335 99,22.43845761848143 C 99.2,23.126454900628524 99,24.35030405979277 99,24.828265670120604" stroke-width="1.7" class="SparkLine__Path-sc-9wg5ja-1 csnuAl"></path></svg>