<svg viewBox="0 0 100 32" version="1.1" xmlns="http://www.w3.org/2000/svg" preserveAspectRatio="none" class="SparkLine__Svg-sc-9wg5ja-0 cdfFYq"><path d="M 0,21.284022238337005 C 9.496415111589894e-18,21.128934010152328 1.6151010239662122e-17,20.772347111433458 0,20.508581097413625 C 1.6151010239662122e-17,20.244815083393792 -0.20000000000000004,19.90795262267343 0,19.96519216823785 C 0.20000000000000004,20.022431713802266 0.7999999999999999,20.9374909354605 1,20.79477882523571 C 1.2,20.65206671501092 1,19.588880831520473 1,19.251631617113897 C 1,18.91438240270732 0.8,18.963500120860548 1,19.108532753202823 C 1.2,19.253565385545098 1.7999999999999998,19.707614213198003 2,19.97679477882527 C 2.2,20.245975344452535 2,20.113318830070117 2,20.454435581339148 C 2,20.795552332608178 1.8,21.47391829828379 2,21.68237853517043 C 2.2,21.890838772057066 2.8,21.601547014745016 3,21.49673676577233 C 3.2,21.391926516799643 3,21.251534928692298 3,21.15832729030699 C 3,21.06511965192168 2.8,21.51259366690839 3,21.030698573845783 C 3.2,20.548803480783175 3.8,19.36997824510515 4,18.748851824993956 C 4.2,18.127725404882764 4,18.063911046652155 4,17.92506647328982 C 4,17.786221899927487 3.8,17.827217790669582 4,18.05462895818228 C 4.2,18.28204012569498 4.8,18.798743050519747 5,19.062122310853322 C 5.2,19.325501571186898 5,19.13251148175009 5,19.371525259850156 C 5,19.610539037950222 4.8,20.272661348803503 5,20.257191201353656 C 5.2,20.24172105390381 5.8,18.947643219724448 6,19.294174522600926 C 6.2,19.640705825477404 6,21.847909112883734 6,21.98984771573604 C 6,22.131786318588347 5.8,20.069228909838046 6,20.00386753686246 C 6.2,19.938506163886878 6.8,21.46773023930385 7,21.66304085085812 C 7.2,21.85835146241239 7,21.461542180323917 7,20.980420594633806 C 7,20.499299008943694 6.8,19.379260333575072 7,19.25743292240756 C 7.2,19.135605511240048 7.8,20.063040850858123 8,20.37128353879625 C 8.2,20.679526226734374 7.8,20.615711868503787 8,20.798646362098182 C 8.2,20.981580855692577 8.8,21.3428087986464 9,21.285956006768227 C 9.2,21.229103214890056 9,20.77466763355093 9,20.514382402707323 C 9,20.254097171863716 8.8,20.062654097171894 9,19.984529852550185 C 9.2,19.906405607928477 9.8,20.07386995407304 10,20.123761179598784 C 10.2,20.17365240512453 10,19.83717669809043 10,20.233985980178904 C 10,20.630795262267377 9.8,21.569446458786604 10,22.10780759004114 C 10.2,22.646168721295677 10.799999999999999,22.49378776891472 11,22.925791636451578 C 11.2,23.357795503988434 11,24.089920232052233 11,24.267826927725423 C 11,24.445733623398613 10.8,23.67532028039644 11,23.815325114817522 C 11.2,23.955329949238603 11.8,24.49910563210059 12,24.967851099830824 C 12.2,25.436596567561057 12,26.13159294174521 12,26.159052453468686 C 12,26.18651196519216 11.8,25.68682620256229 12,25.1051486584482 C 12.2,24.52347111433411 12.8,23.792119893642745 13,23.250664732898244 C 13.2,22.709209572153743 13,22.61716219482721 13,22.397872854725694 C 13,22.17858351462418 12.8,22.39709934735321 13,22.154218032390673 C 13.2,21.91133671742814 13.8,21.3930867778584 14,21.183466279913024 C 14.2,20.973845781967647 14,21.23142373700752 14,21.106115542663794 C 14,20.980807348320067 13.8,20.81605027797925 14,20.55692530819438 C 14.2,20.29780033840951 14.8,19.993811941020084 15,19.810490693739446 C 15.2,19.627169446458808 15,19.706453952139267 15,19.640319071791183 C 15,19.5741841914431 14.8,19.6836354846507 15,19.479816291999022 C 15.2,19.275997099347343 15.8,18.99444041576023 16,18.62122310853278 C 16.2,18.248005801305332 15.8,17.768431230360196 16,17.61372975586177 C 16.2,17.45902828136334 16.8,17.50775924583036 17,17.84771573604065 C 17.2,18.187672226250942 17,19.077205704616887 17,19.31351220691323 C 17,19.549818709209575 16.8,19.08803480783177 17,19.02924824752237 C 17.2,18.97046168721297 17.8,18.882281846748874 18,19.019579405366233 C 18.2,19.156876963983592 18,19.69755861735559 18,19.71573604060916 C 18,19.733913463862727 17.8,19.3692047377327 18,19.110466521634077 C 18.2,18.851728305535453 18.8,18.7012811215857 19,18.422044960116036 C 19.2,18.14280879864637 19,17.789702683103727 19,17.714285714285747 C 19,17.638868745467768 18.8,17.9857868020305 19,18.044960116026143 C 19.2,18.104133430021786 19.8,18.01208605269521 20,18.01015228426397 C 20.2,18.00821851583273 20,18.043413101281107 20,18.03529127386994 C 20,18.027169446458775 19.8,18.065458061397145 20,17.96954314720813 C 20.2,17.87362823301912 20.8,17.58201595358961 21,17.555716702924876 C 21.2,17.52941745226014 21,17.824123761179603 21,17.838046893884453 C 21,17.851970026589303 20.8,17.930481024897272 21,17.625332366449125 C 21.2,17.32018370800098 21.8,16.41518008218518 22,16.312303601643727 C 22.2,16.209427121102273 22,16.806961566352445 22,17.110949963741856 C 22,17.414938361131266 21.8,17.70423011844333 22,17.832245588590787 C 22.2,17.960261058738244 22.8,17.9026347594876 23,17.751027314479142 C 23.2,17.599419869470683 23,17.20531786318592 23,17.074208363548493 C 23,16.943098863911068 22.8,17.098960599468235 23,17.09547981629202 C 23.2,17.091999033115805 23.8,16.916799613246337 24,17.05680444766741 C 24.2,17.196809282088484 23.8,17.461348803480785 24,17.795503988397392 C 24.2,18.129659173314 24.8,18.055015711868535 25,18.727580372250454 C 25.2,19.400145032632373 25,20.817984046410444 25,21.15832729030699 C 25,21.498670534203534 24.8,20.975006043026376 25,20.429296591733173 C 25.2,19.88358714043997 25.8,18.639013778100114 26,18.429780033840984 C 26.2,18.220546289581854 26,18.991733139956494 26,19.383127870437516 C 26,19.774522600918537 25.8,19.936572395455652 26,20.386753686246085 C 26.2,20.836934977036517 26.8,21.354411409233766 27,21.634034324389674 C 27.2,21.913657239545582 27,21.662267343485627 27,21.784868262025633 C 27,21.907469180565638 26.8,21.985980178873604 27,22.247038917089707 C 27.2,22.50809765530581 27.8,22.782692772540525 28,23.090161953106147 C 28.2,23.39763113367177 28,23.557360406091384 28,23.784384819917822 C 28,24.01140923374426 27.8,23.842784626540965 28,24.225284022238334 C 28.2,24.607783417935703 28.8,25.7576021271453 29,25.696881798404675 C 29.2,25.63616146966405 29,23.804496011602645 29,23.9216823785352 C 29,24.038868745467752 28.8,26.08788977519943 29,26.282813633067448 C 29.2,26.477737490935468 29.8,24.979840464104445 30,24.896301667875292 C 30.2,24.81276287164614 30,25.244379985496746 30,25.865119651921688 C 30,26.48585931834663 29.8,28.253323664491173 30,28 C 30.2,27.746676335508827 30.8,25.626879381194122 31,24.59850132946582 C 31.2,23.570123277737515 31,23.568189509306272 31,22.858109741358483 C 31,22.148029973410694 30.8,21.68740633309163 31,21.04810248972687 C 31.2,20.408798646362108 31.8,19.574570945129317 32,19.66159052453468 C 32.2,19.748610103940045 32,21.04810248972685 32,21.483200386753687 C 32,21.918298283780523 31.8,21.326178390137795 32,21.83708000966886 C 32.2,22.347981629199925 32.8,23.66835871404402 33,24.037708484409016 C 33.2,24.40705825477401 32.8,23.654048827652893 33,23.68382886149384 C 33.2,23.713608895334787 33.8,23.67532028039644 34,24.186608653613753 C 34.2,24.697897026831065 34,25.89799371525262 34,26.24027072758039 C 34,26.58254773990816 33.8,26.07706067198454 34,25.897993715252607 C 34.2,25.718926758520674 34.8,25.816775441140926 35,25.34493594392072 C 35.2,24.873096446700515 35,24.064781242446234 35,23.53879622915158 C 35,23.012811215856924 34.8,23.077785835146262 35,22.715010877447444 C 35.2,22.352235919748626 35.8,21.868020304568535 36,21.72492144065749 C 36.2,21.581822576746443 36,22.014599951655804 36,21.999516557892207 C 36,21.98443316412861 35.8,21.72646845540248 36,21.64950447183951 C 36.2,21.57254048827654 36.8,21.391926516799632 37,21.61469664007737 C 37.2,21.837466763355106 37,22.80203045685281 37,22.7633550882282 C 37,22.72467971960359 36.8,21.805366207396673 37,21.42131979695432 C 37.2,21.03727338651197 37.8,21.373749093546046 38,20.843123036016433 C 38.2,20.31249697848682 38,18.991733139956487 38,18.76818950930626 C 38,18.544645878656034 37.8,19.54208363548466 38,19.7254048827653 C 38.2,19.90872613004594 38.8,19.707227459511735 39,19.68479574570946 C 39.2,19.662364031907188 39,19.79695431472081 39,19.613246313753926 C 39,19.42953831278704 38.8,19.04587865603095 39,18.766255740875042 C 39.2,18.486632825719134 39.8,18.2228668116993 40,18.215131737974378 C 40.2,18.207396664249455 40,18.479284505680447 40,18.727580372250426 C 40,18.975876238820405 39.8,19.45235678027557 40,19.456611070824273 C 40.2,19.460865361372978 40.8,19.017645636934976 41,18.748851824993956 C 41.2,18.480058013052936 40.8,18.091757312061883 41,18.112642011119174 C 41.2,18.133526710176465 41.8,20.074643461445504 42,18.85327532028041 C 42.2,17.631907179115316 42,12.969978245105162 42,12.005801305293705 C 42,11.041624365482248 41.8,13.515687696398372 42,14.03239062122312 C 42.2,14.54909354604787 42.8,14.31936185641769 43,14.589315929417449 C 43.2,14.859270002417208 43,15.212762871646133 43,15.382160986221916 C 43,15.551559100797698 42.8,15.662944162436563 43,15.436306502296365 C 43.2,15.209668842156166 43.8,14.293062605752972 44,14.248972685520918 C 44.2,14.204882765288865 44,15.064636209813878 44,15.215856901136092 C 44,15.367077592458307 43.8,14.958665699782463 44,15.005076142131989 C 44.2,15.051486584481514 44.8,15.015518491660616 45,15.447909112883725 C 45.2,15.880299734106833 45,16.721489001692056 45,17.16702924824753 C 45,17.612569494803004 44.8,17.680251389896053 45,17.675610345661102 C 45.2,17.67096930142615 45.8,17.26255740875032 46,17.143824027072778 C 46.2,17.025090645395235 46,17.11597776166304 46,17.08194343727338 C 46,17.047909112883723 45.8,17.04790911288373 46,16.973652405124483 C 46.2,16.899395697365236 46.8,17.08271694464587 47,16.71065989847715 C 47.2,16.33860285230843 47,15.569349770365005 47,15.113367174280889 C 47,14.657384578196773 46.8,14.391298042059475 47,14.430746918056574 C 47.2,14.470195794053673 47.8,15.060768672951417 48,15.31061155426638 C 48.2,15.560454435581343 48,15.543437273386525 48,15.679961324631387 C 48,15.81648537587625 47.8,16.052791878172588 48,15.993231810490695 C 48.2,15.9336717428088 48.8,15.834276045443575 49,15.382160986221916 C 49.2,14.930045927000256 48.8,13.961227942953828 49,13.732656514382395 C 49.2,13.504085085810962 49.8,14.073773265651427 50,14.239303843364748 C 50.2,14.40483442107807 50,14.629151559100803 50,14.560309402949002 C 50,14.491467246797201 49.8,14.221126420111187 50,13.895093062605744 C 50.2,13.569059705100301 50.8,12.745274353396168 51,12.93014261542179 C 51.2,13.115010877447412 51,14.423785351704128 51,14.819434372733859 C 51,15.21508339376359 50.8,14.98419144307468 51,14.90838772057045 C 51.2,14.832583998066221 51.8,14.646555474981866 52,14.440415760212714 C 52.2,14.234276045443561 52,13.53541213439691 52,13.877689146724688 C 52,14.219966159052465 51.8,16.107324147933298 52,16.151800821851598 C 52.2,16.1962774957699 52.8,14.281073241479342 53,14.100072516316182 C 53.2,13.919071791153021 53,15.051099830795279 53,15.246797196035791 C 53,15.442494561276304 52.8,15.013584723229407 53,15.078559342518746 C 53.2,15.143533961808085 53.8,15.591781484167285 54,15.571670292482489 C 54.2,15.551559100797693 54,15.227459511723485 54,14.978003384094766 C 54,14.728547256466047 53.8,14.249359439207163 54,14.324389654338898 C 54.2,14.399419869470632 54.8,15.244476673918294 55,15.353154459753437 C 55.2,15.46183224558858 55,14.972588832487295 55,14.867778583514614 C 55,14.762968334541933 54.8,14.860817017162205 55,14.82910321489003 C 55.2,14.797389412617854 55.8,14.818660865361377 56,14.709209572153739 C 56.2,14.599758278946101 56,15.023640319071802 56,14.281846748851837 C 56,13.540053178631872 55.8,11.595842397872868 56,11.000241721053916 C 56.2,10.404641044234966 56.8,11.088034807831779 57,11.303843364757082 C 57.2,11.519651921682385 57,11.714962533236637 57,12.079284505680432 C 57,12.443606478124227 56.8,13.116171138506154 57,13.12545322697606 C 57.2,13.134735315445965 57.8,12.697703649987902 58,12.125694948029965 C 58.2,11.553686246072028 57.8,10.160986221899929 58,10.265409717186373 C 58.2,10.369833212472816 58.8,12.075803722504245 59,12.647812424462183 C 59.2,13.21982112642012 59,13.04848924341309 59,13.12545322697606 C 59,13.202417210539029 58.8,12.802513898960608 59,13.032632342277026 C 59.2,13.262750785593443 59.8,13.99487551365725 60,14.276045443558143 C 60.2,14.557215373459035 60,14.467101764563699 60,14.43848199178149 C 60,14.409862218999281 59.8,14.162339859801806 60,14.132946579647102 C 60.2,14.103553299492399 60.8,14.408701957940536 61,14.291515591007975 C 61.2,14.174329224075414 61,13.688179840464109 61,13.547014744984295 C 61,13.405849649504482 60.8,13.413197969543162 61,13.585690113608912 C 61.2,13.758182257674662 61.8,14.15615180082187 62,14.409475465313044 C 62.2,14.662799129804217 62,14.80937877689147 62,14.85230843606478 C 62,14.895238095238089 61.8,14.740536620739658 62,14.624123761179591 C 62.2,14.507710901619525 62.8,14.656997824510517 63,14.270244138264447 C 63.2,13.883490452018377 63,12.912738699540736 63,12.690355329949242 C 63,12.467971960357747 62.8,13.419772782209327 63,13.15832729030698 C 63.2,12.896881798404634 63.8,11.605897993715244 64,11.383127870437505 C 64.2,11.160357747159766 64,11.731592941745216 64,12.04447667391829 C 64,12.357360406091363 63.8,13.26120377084844 64,12.947546531302876 C 64.2,12.633889291757313 64.8,10.672661348803478 65,10.476190476190476 C 65.2,10.279719603577474 65,11.46744017403917 65,11.965192168237868 C 65,12.462944162436566 64.8,12.698090403674177 65,12.964950447183963 C 65.2,13.231810490693748 65.8,13.267778583514623 66,13.299492385786799 C 66.2,13.331206188058975 65.8,13.16219482716944 66,13.123519458544838 C 66.2,13.084844089920235 66.8,13.278220933043283 67,13.106115542663783 C 67.2,12.934010152284284 67,12.17751994198696 67,12.26299250664734 C 67,12.34846507130772 66.8,13.379937152525997 67,13.533478365965683 C 67.2,13.68701957940537 67.8,13.251534928692283 68,13.030698573845774 C 68.2,12.809862218999264 68,12.632729030698563 68,12.429296591733133 C 68,12.225864152767702 67.8,12.223156876963992 68,12.013536379018623 C 68.2,11.803915881073253 68.8,11.353734590282814 69,11.381194102006283 C 69.2,11.408653613729753 69,11.83137539279671 69,12.15083393763597 C 69,12.470292482475228 68.8,12.839642252840234 69,12.978486826202575 C 69.2,13.117331399564916 69.8,13.200870195794062 70,12.845056804447673 C 70.2,12.489243413101283 70,11.556006768189507 70,11.199419869470628 C 70,10.842832970751749 69.8,11.281411650954801 70,11.062122310853281 C 70.2,10.842832970751761 70.8,10.353202803964232 71,10.102973168963025 C 71.2,9.852743533961819 71,9.818322455885925 71,9.810974135847246 C 71,9.803625815808568 70.8,10.012472806381432 71,10.06623156876963 C 71.2,10.11999033115783 71.8,10.647135605511231 72,10.079767947788243 C 72.2,9.512400290065255 72,7.542277012327762 72,7.229393280154694 C 72,6.916509547981626 71.8,8.202465554749827 72,8.515349286922902 C 72.2,8.828233019095977 72.8,8.687841430988646 73,8.793811941020067 C 73.2,8.899782451051488 73,8.905197002658925 73,9.045201837080006 C 73,9.185206671501087 72.8,9.735557167029263 73,9.493836113125468 C 73.2,9.252115059221673 73.8,7.946821368141164 74,7.836596567561031 C 74.2,7.726371766980899 73.8,8.75281605027798 74,8.942712110224804 C 74.2,9.132608170171627 74.8,8.85607928450569 75,8.786076867295149 C 75.2,8.716074450084609 75,8.488276528885665 75,8.592700024172103 C 75,8.697123519458541 74.8,9.271839497220206 75,9.308194343727337 C 75.2,9.344549190234467 75.8,9.152719361856416 76,8.774474256707759 C 76.2,8.396229151559101 76,7.706260575296107 76,7.4169688179840465 C 76,7.127677060671986 75.8,7.261107082426881 76,7.328015470147455 C 76.2,7.3949238578680285 76.8,8.417113850616404 77,7.751510756586913 C 77.2,7.085907662557422 77,4.4757070340826735 77,4 C 77,3.5242929659173265 76.8,4.75030215131737 77,5.3729755861735455 C 77.2,5.995649021029721 77.8,6.501522842639593 78,7.113367174280879 C 78.2,7.725211505922164 78,8.06014019821125 78,8.432197244379974 C 78,8.804254290548698 77.8,8.946579647087276 78,8.9736524051245 C 78.2,9.000725163161725 78.8,8.344790911288367 79,8.567561034566099 C 79.2,8.79033115784383 79,9.788542422044943 79,10.087503021513161 C 79,10.38646362098138 78.8,10.063911046652171 79,10.062364031907187 C 79.2,10.060817017162202 79.8,9.916171138506154 80,10.079767947788243 C 80.2,10.243364757070331 80,10.747691563935218 80,10.880348078317626 C 80,11.013004592700034 79.8,11.060575296108304 80,10.74305051970028 C 80.2,10.425525743292255 80.8,9.485327532028048 81,9.292724196277502 C 81.2,9.100120860526957 81,9.502731447909119 81,9.78003384094755 C 81,10.05733623398598 80.8,10.817307227459507 81,10.67923616146966 C 81.2,10.541165095479814 81.8,9.211505922165829 82,9.089678510998317 C 82.2,8.967851099830805 82,10.027556200145037 82,10.070099105632103 C 82,10.112642011119169 81.8,9.236644911771808 82,9.302393038433642 C 82.2,9.368141165095476 82.8,9.80014503263235 83,10.398839738941275 C 83.2,10.9975344452502 82.8,11.693691080493124 83,12.29586656997826 C 83.2,12.898042059463396 83.8,12.984288131496271 84,13.40971718636695 C 84.2,13.83514624123763 84,14.234276045443579 84,14.423011844331658 C 84,14.611747643219736 83.8,14.30002417210539 84,14.353396180807344 C 84.2,14.406768189509298 84.8,14.791201353637902 85,14.68987188784143 C 85.2,14.58854242204496 85,14.070292482475217 85,13.84674885182499 C 85,13.623205221174764 84.8,13.524969784868278 85,13.572153734590298 C 85.2,13.619337684312319 85.8,14.070292482475223 86,14.082668600435095 C 86.2,14.095044718394968 86,13.654532269760706 86,13.634034324389665 C 86,13.613536379018624 85.8,13.887357988880838 86,13.980178873579892 C 86.2,14.072999758278945 86.8,14.136427362823289 87,14.09813874788493 C 87.2,14.05985013294657 87,14.064491177181546 87,13.788735798888098 C 87,13.51298042059465 86.8,12.866328257191197 87,12.719361856417688 C 87.2,12.572395455644179 87.8,13.088711626782697 88,13.053903795020554 C 88.2,13.019095963258412 88,12.634276045443576 88,12.545322697606979 C 88,12.456369349770382 87.8,12.750302151317387 88,12.609137055837568 C 88.2,12.46797196035775 88.8,11.825574087503025 89,11.839497220207882 C 89.2,11.853420352912739 89,12.403384094754648 89,12.678752719361851 C 89,12.954121343969055 88.8,13.086004350978975 89,13.216340343243903 C 89.2,13.346676335508832 89.8,13.310321489001701 90,13.330432680686497 C 90.2,13.350543872371293 90,13.471984529852561 90,13.316896301667885 C 90,13.16180807348321 89.8,12.149673676577237 90,12.554991539763119 C 90.2,12.960309402949001 90.8,14.726613488034813 91,15.343485617597299 C 91.2,15.960357747159785 90.8,15.199613246313763 91,15.63935218757555 C 91.2,16.079091128837337 91.8,17.267198452985276 92,17.54218032390623 C 92.2,17.817162194827183 92,17.40217548948513 92,17.014261542180318 C 92,16.626347594875504 91.8,15.654822335025372 92,15.602610587382156 C 92.2,15.55039883973894 92.8,16.41440657481268 93,16.75320280396424 C 93.2,17.091999033115798 93,17.29001692047377 93,17.296591733139955 C 93,17.30316654580614 92.8,16.541261783901398 93,16.786076867295158 C 93.2,17.03089195068892 93.8,18.18457819676093 94,18.520667150108764 C 94.2,18.856756103456597 94,18.340053178631848 94,18.466521634034315 C 94,18.592990089436782 93.8,18.952284263959392 94,19.153009427121106 C 94.2,19.35373459028282 94.8,19.40014503263235 95,19.470147449842887 C 95.2,19.540149867053426 95,19.885134155184925 95,19.503021513173806 C 95,19.120908871162687 94.8,17.68025138989606 95,17.559584239787288 C 95.2,17.438917089678515 95.8,18.423591974861026 96,18.899685762629943 C 96.2,19.37577955039886 96,19.84336475707036 96,19.940053178631874 C 96,20.036741600193388 95.8,19.208701957940537 96,19.383127870437516 C 96.2,19.557553782934495 96.8,20.20768672951415 97,20.812182741116764 C 97.2,21.416678752719378 97,21.567125936669097 97,22.405607928450582 C 97,23.244089920232067 96.8,25.207638385303383 97,25.00459270002419 C 97.2,24.801547014744997 97.8,22.32903069857384 98,21.39037950205462 C 98.2,20.451728305535404 98,20.599468213681426 98,20.311336717428105 C 98,20.023205221174784 97.8,19.911046652163414 98,19.949722020788016 C 98.2,19.98839738941262 98.8,19.915300942712104 99,20.50471356055112 C 99.2,21.094126178390137 99,22.418370800096703 99,22.8967851099831" stroke-width="1.7" class="SparkLine__Path-sc-9wg5ja-1 csnuAl"></path></svg>