<svg viewBox="0 0 100 32" version="1.1" xmlns="http://www.w3.org/2000/svg" preserveAspectRatio="none" class="SparkLine__Svg-sc-9wg5ja-0 cdfFYq"><path d="M 0,21.780990242139488 C 1.5083470514977268e-17,21.53465847488253 -0.2,20.422696060715552 0,20.549331405854694 C 0.19999999999999998,20.675966750993837 0.6000000000000001,21.64221178171305 1,22.4141669678352 C 1.4000000000000001,23.18612215395735 1.7999999999999998,24.216552222623733 2,24.409107336465432 C 2.2,24.60166245030713 1.8,24.485435489699995 2,23.37694253704369 C 2.2,22.268449584387383 2.6,19.815540296349788 3,18.86664257318391 C 3.4,17.917744850018032 3.8,18.632453921214303 4,18.632453921214303 C 4.2,18.632453921214303 3.8,18.781640766172707 4,18.86664257318391 C 4.2,18.951644380195113 4.6,18.77817130466207 5,19.057462956270314 C 5.4,19.336754607878557 5.8,19.909215757137673 6,20.263100831225128 C 6.2,20.616985905312582 5.8,20.76964221178167 6,20.826888326707582 C 6.2,20.884134441633496 6.6,20.42096132996022 7,20.549331405854694 C 7.4,20.677701481749168 7.8,21.610986628117058 8,21.46873870617994 C 8.2,21.326490784242825 7.8,19.969931333574248 8,19.838091796169117 C 8.2,19.706252258763985 8.6,20.00289121792552 9,20.809541019154288 C 9.4,21.616190820383057 9.6,23.14275388507407 10,23.871340802312957 C 10.4,24.599927719551843 10.799999999999999,23.6267437658113 11,24.45247560534871 C 11.2,25.278207444886117 10.8,27.760607155764365 11,28 C 11.2,28.239392844235635 11.6,26.877629201301012 12,25.649439826526876 C 12.4,24.42125045175274 12.8,22.636212504517463 13,21.859053126129325 C 13.2,21.081893747741187 12.8,22.549475966750986 13,21.763642934586194 C 13.2,20.977809902421402 13.6,18.77123238164075 14,17.92988796530537 C 14.4,17.088543548969987 14.8,17.685290928803756 15,17.556920852909283 C 15.2,17.42855077701481 14.8,17.54998192988794 15,17.28803758583301 C 15.2,17.026093241778078 15.6,16.403324900614372 16,16.247199132634616 C 16.4,16.09107336465486 16.8,16.498735092157585 17,16.50740874593424 C 17.2,16.516082399710893 16.8,16.391181785327085 17,16.290567401517894 C 17.2,16.189953017708703 17.6,16.08239971087818 18,16.00433682688829 C 18.4,15.926273942898401 18.6,16.011275749909604 19,15.90025298156844 C 19.4,15.78923021322728 19.8,15.556776292012973 20,15.449222985182484 C 20.2,15.341669678351995 19.8,15.308709794000743 20,15.362486447415998 C 20.2,15.416263100831253 20.6,15.917600289121793 21,15.718106252258757 C 21.4,15.51861221539572 21.8,14.463895916154662 22,14.365016263100815 C 22.2,14.266136610046967 21.8,15.006866642573186 22,15.22370798698952 C 22.2,15.440549331405855 22.6,15.315648717022029 23,15.449222985182484 C 23.4,15.582797253342939 23.8,15.601879291651564 24,15.891579327791792 C 24.2,16.18127936393202 23.8,16.137911095048786 24,16.897723165883626 C 24.2,17.657535236718466 24.6,19.35236718467651 25,19.69063968196599 C 25.4,20.02891217925547 25.8,18.271629924105497 26,18.589085652331022 C 26.2,18.906541380556547 25.8,20.71933501987712 26,21.27791832309361 C 26.2,21.836501626310096 26.6,21.144344054933153 27,21.382002168413457 C 27.4,21.61966028189376 27.8,21.777520780628855 28,22.46620889049513 C 28.2,23.1548970003614 27.8,24.365739067582204 28,24.82544271774483 C 28.2,25.28514636790746 28.6,24.7786049873509 29,24.764727141308256 C 29.4,24.750849295265613 29.6,25.170654138055642 30,24.75605348753161 C 30.4,24.341452837007576 30.8,23.682255149981913 31,22.691723888688088 C 31.2,21.701192627394263 30.8,20.33249006143835 31,19.803397181062486 C 31.2,19.274304300686623 31.6,19.64553668232739 32,20.04625948680878 C 32.4,20.44698229129017 32.8,21.487820744488587 33,21.807011203469436 C 33.2,22.126201662450285 32.8,21.685580050596286 33,21.642211781713016 C 33.2,21.598843512829745 33.6,22.14701843151424 34,21.59016985905309 C 34.4,21.033321286591942 34.8,19.657679797614705 35,18.857968919407263 C 35.2,18.05825804119982 34.8,17.680086736537735 35,17.591615468015874 C 35.2,17.503144199494013 35.6,18.254282616552203 36,18.415612576797955 C 36.4,18.576942537043706 36.8,19.071340802312932 37,18.398265269244625 C 37.2,17.72518973617632 36.8,15.834333212865879 37,15.050234911456416 C 37.2,14.266136610046953 37.6,14.397976147452098 38,14.477773762197312 C 38.4,14.557571376942526 38.6,15.180339718106232 39,15.449222985182484 C 39.4,15.718106252258735 39.8,15.66779906035414 40,15.82219009757857 C 40.2,15.976581134803 39.8,16.23505601734728 40,16.221178171304636 C 40.2,16.207300325261993 40.6,15.95576436573904 41,15.75280086736535 C 41.4,15.54983736899166 41.8,15.241055294542805 42,15.206360679436191 C 42.2,15.171666064329576 41.8,15.579327791832279 42,15.579327791832279 C 42.2,15.579327791832279 42.6,15.169931333574247 43,15.206360679436191 C 43.4,15.242790025298135 43.8,15.411058908565202 44,15.761474521141997 C 44.2,16.11189013371879 43.8,16.557715937838772 44,16.958438742320162 C 44.2,17.359161546801552 44.6,17.763353812793614 45,17.765088543548945 C 45.4,17.766823274304276 45.8,17.093747741235955 46,16.967112396096812 C 46.2,16.84047705095767 45.8,17.740802312974303 46,17.131911817853236 C 46.2,16.52302132273217 46.6,14.123888688109833 47,13.922659920491473 C 47.4,13.721431152873112 47.8,15.84994578966385 48,16.125767979761434 C 48.2,16.40159016985902 47.8,15.568919407300314 48,15.301770870979393 C 48.2,15.034622334658472 48.6,14.855945066859396 49,14.790025298156827 C 49.4,14.724105529454258 49.6,14.722370798698929 50,14.972172027466547 C 50.4,15.221973256234165 50.8,15.773617636429323 51,16.039031441994915 C 51.2,16.30444524756051 50.8,15.985254788579658 51,16.29924105529451 C 51.2,16.61322732200936 51.6,17.631514275388472 52,17.60896277556917 C 52.4,17.58641127574987 52.8,16.356487170220415 53,16.18648355619801 C 53.2,16.016479942175604 52.8,16.922009396458225 53,16.758944705457147 C 53.2,16.595880014456068 53.6,15.3590169859053 54,15.371160101192613 C 54.4,15.383303216479927 54.8,16.58720636067941 55,16.819660281893718 C 55.2,17.052114203108026 54.8,17.491001084206683 55,16.53342970726415 C 55.2,15.57585833032162 55.6,13.119479580773389 56,12.031803397181054 C 56.4,10.94412721358872 56.8,11.313624864474148 57,11.095048789302478 C 57.2,10.876472714130808 56.8,10.930249367546049 57,10.938923021322704 C 57.2,10.94759667509936 57.6,10.966678713408013 58,11.138417058185755 C 58.4,11.310155402963497 58.6,11.500975786049866 59,11.797614745211412 C 59.4,12.094253704372958 59.8,12.368341163715211 60,12.621611853993489 C 60.2,12.874882544271767 59.8,13.11080592699673 60,13.0639681966028 C 60.2,13.017130466208872 60.6,12.331911817853262 61,12.387423202023847 C 61.4,12.442934586194431 61.8,13.27387061799783 62,13.34152511745572 C 62.2,13.409179616913612 61.8,13.435200578243558 62,12.725695699313306 C 62.2,12.016190820383054 62.6,10.432381640766149 63,9.794000722804462 C 63.4,9.155619804842775 63.8,9.519913263462229 64,9.533791109504874 C 64.2,9.547668955547518 63.8,9.388073726057078 64,9.863389953017684 C 64.2,10.33870617997829 64.6,11.365666787134073 65,11.910372244307908 C 65.4,12.455077701481743 65.8,12.592121431152858 66,12.586917238886862 C 66.2,12.581713046620866 65.8,11.85659559089264 66,11.88435128297793 C 66.2,11.91210697506322 66.6,12.78120708348389 67,12.725695699313306 C 67.4,12.670184315142722 67.8,11.844452475605314 68,11.60679436212501 C 68.2,11.369136248644706 67.8,11.629345861944309 68,11.537405131911788 C 68.2,11.445464401879267 68.6,11.898229129020587 69,11.147090711962402 C 69.4,10.395952294904218 69.6,8.515504156125747 70,7.781713046620867 C 70.4,7.047921937115987 70.8,7.587423202023833 71,7.478135164438001 C 71.2,7.368847126852169 70.8,7.266498012287657 71,7.235272858691708 C 71.2,7.20404770509576 71.6,7.224864474159744 72,7.32200939645826 C 72.4,7.419154318756777 72.8,8.055800505963122 73,7.720997470184294 C 73.2,7.386194434405467 72.8,5.732996024575327 73,5.647994217564124 C 73.2,5.562992410552921 73.6,6.921286591976851 74,7.295988435128281 C 74.4,7.670690278279712 74.8,8.180701120346933 75,7.521503433321277 C 75.2,6.86230574629562 74.8,4.234188651969644 75,4 C 75.2,3.765811348030356 75.6,5.819732562341872 76,6.350560173473056 C 76.4,6.88138778460424 76.8,6.4737260571015325 77,6.654138055655922 C 77.2,6.834550054210312 76.8,7.2595590892663235 77,7.252620166245005 C 77.2,7.245681243223686 77.6,6.413010480664973 78,6.619443440549328 C 78.4,6.825876400433684 78.6,7.616913624864471 79,8.284784965666782 C 79.4,8.952656306469095 79.8,9.748897723165877 80,9.958800144560886 C 80.2,10.168702565955895 79.8,9.337766534152484 80,9.334297072641824 C 80.2,9.330827611131165 80.6,9.757571376942533 81,9.941452837007589 C 81.4,10.125334297072644 81.8,10.05594506685941 82,10.253704372967103 C 82.2,10.451463679074797 81.8,10.49483194795806 82,10.930249367546057 C 82.2,11.365666787134055 82.6,11.906902782797223 83,12.430791470907089 C 83.4,12.954680159016954 83.8,13.334586194434381 84,13.549692808095385 C 84.2,13.764799421756388 83.8,13.488977231658799 84,13.506324539212109 C 84.2,13.523671846765419 84.6,13.599999999999994 85,13.636429345861938 C 85.4,13.672858691723881 85.8,13.700614383809144 86,13.688471268521829 C 86.2,13.676328153234513 85.8,13.764799421756402 86,13.575713769425363 C 86.2,13.386628117094324 86.6,12.959884351282975 87,12.743043006866635 C 87.4,12.526201662450296 87.8,12.496711239609658 88,12.491507047343662 C 88.2,12.486302855077666 87.8,12.562631008312227 88,12.717022045536657 C 88.2,12.871413082761087 88.6,13.220093964582547 89,13.263462233465816 C 89.4,13.306830502349085 89.6,12.290278279725321 90,12.933863389953004 C 90.4,13.577448500180687 90.8,15.556776292012978 91,16.481387784604227 C 91.2,17.405999277195477 90.8,17.51702204553664 91,17.556920852909247 C 91.2,17.596819660281856 91.6,16.713841705818556 92,16.680881821467278 C 92.4,16.647921937116 92.8,16.736393205637864 93,17.39212143115286 C 93.2,18.047849656667854 92.8,19.15460787856883 93,19.95952294904226 C 93.2,20.76443801951569 93.6,21.349042284062126 94,21.416696783520017 C 94.4,21.484351282977908 94.8,20.316877484640354 95,20.297795446331723 C 95.2,20.27871340802309 94.8,20.773111673292355 95,21.32128659197685 C 95.2,21.869461510661345 95.6,22.39681966028185 96,23.038670039754194 C 96.4,23.68052041922654 96.8,25.18279725334291 97,24.53053848933858 C 97.2,23.87827972533425 96.8,20.457390675822168 97,19.777376219732542 C 97.2,19.097361763642915 97.6,20.207589447054527 98,21.130466208890446 C 98.4,22.053342970726366 98.8,23.739501264907798 99,24.391760028912135" stroke-width="1.7" class="SparkLine__Path-sc-9wg5ja-1 csnuAl"></path></svg>